<svg xmlns="http://www.w3.org/2000/svg" viewBox="0 0 480 160" fill="none">
  <defs>
    <linearGradient id="gG" x1="0" y1="0" x2="0.5" y2="1">
      <stop offset="0%" stop-color="#065f46"/>
      <stop offset="100%" stop-color="#059669"/>
    </linearGradient>
    <linearGradient id="dG" x1="0" y1="0" x2="1" y2="1">
      <stop offset="0%" stop-color="#c8982f"/>
      <stop offset="100%" stop-color="#9e7b24"/>
    </linearGradient>
    <linearGradient id="aG" x1="0" y1="1" x2="1" y2="0">
      <stop offset="0%" stop-color="#059669"/>
      <stop offset="40%" stop-color="#c8982f"/>
      <stop offset="100%" stop-color="#9e7b24"/>
    </linearGradient>
  </defs>

  <!-- P letter body -->
  <path d="M22 40 L22 148 L44 148 L44 108 L72 108 C98 108 112 94 112 74 C112 54 98 40 72 40 Z M44 56 L68 56 C84 56 92 63 92 74 C92 85 84 92 68 92 L44 92 Z" fill="url(#gG)"/>

  <!-- Graduation cap on P -->
  <path d="M67 22 L42 38 L67 46 L92 38 Z" fill="#065f46"/>
  <path d="M42 38 L67 50 L92 38 L67 46 Z" fill="#047857"/>
  <rect x="64" y="18" width="6" height="6" rx="2" fill="#065f46"/>
  <path d="M42 38 Q38 48 36 52" stroke="#065f46" stroke-width="2.5" stroke-linecap="round" fill="none"/>
  <circle cx="35" cy="54" r="3" fill="#065f46"/>

  <!-- Chart line with arrowhead -->
  <path d="M30 130 L52 112 L72 120 L98 78" stroke="url(#aG)" stroke-width="4" stroke-linecap="round" stroke-linejoin="round" fill="none"/>
  <polygon points="102,70 94,82 102,84" fill="url(#dG)"/>

  <!-- x+y label -->
  <text x="50" y="105" font-family="Inter,Helvetica,Arial,sans-serif" font-size="13" font-weight="700" fill="#059669" opacity="0.85">x+y</text>

  <!-- PRIME text -->
  <text x="128" y="80" font-family="Inter,Helvetica,Arial,sans-serif" font-size="52" font-weight="800" letter-spacing="2" fill="url(#gG)">PRIME</text>

  <!-- PREP text -->
  <text x="128" y="132" font-family="Inter,Helvetica,Arial,sans-serif" font-size="52" font-weight="800" letter-spacing="2" fill="url(#dG)">PREP</text>
</svg>